PathFileType	4	(X/Y/Z)	F:\MotionCapture\20160217\3\Generated_files\EMG_test05-Dynamic.trc
DataRate	CameraRate	NumFrames	NumMarkers	Units	OrigDataRate	OrigDataStartFrame	OrigNumFrames
120.00	120.00	       6	39	mm	120.00	536	       714
Frame#	Time	Top.Head			Front.Head			Rear.Head			R.Shoulder			R.Offset			R.Elbow			R.Wrist			L.Shoulder			L.Elbow			L.Wrist			R.ASIS			L.ASIS			V.Sacral			R.Thigh			R.Knee			R.Shank			R.Ankle			R.Heel			R.Toe			L.Thigh			L.Knee			L.Shank			L.Ankle			L.Heel			L.Toe			R1			R2			R3			R4			R5			R6			R7			L1			L2			L3			L4			L5			L6			L7			V_Mid_ASIS			V_Pelvis_Origin			V_R.Hip_JC			V_L.Hip_JC			V_R.Knee_JC			V_L.Knee_JC			V_R.Ankle_JC			V_L.Ankle_JC			V_Mid_Hip			V_Mid_Shoulder			V_R.Hand			V_L.Hand			V_R.Toe_Offset_Static			V_L.Toe_Offset_Static			V_R.Toe_Offset			V_L.Toe_Offset			
		X1	Y1	Z1	X2	Y2	Z2	X3	Y3	Z3	X4	Y4	Z4	X5	Y5	Z5	X6	Y6	Z6	X7	Y7	Z7	X8	Y8	Z8	X9	Y9	Z9	X10	Y10	Z10	X11	Y11	Z11	X12	Y12	Z12	X13	Y13	Z13	X14	Y14	Z14	X15	Y15	Z15	X16	Y16	Z16	X17	Y17	Z17	X18	Y18	Z18	X19	Y19	Z19	X20	Y20	Z20	X21	Y21	Z21	X22	Y22	Z22	X23	Y23	Z23	X24	Y24	Z24	X25	Y25	Z25	X26	Y26	Z26	X27	Y27	Z27	X28	Y28	Z28	X29	Y29	Z29	X30	Y30	Z30	X31	Y31	Z31	X32	Y32	Z32	X33	Y33	Z33	X34	Y34	Z34	X35	Y35	Z35	X36	Y36	Z36	X37	Y37	Z37	X38	Y38	Z38	X39	Y39	Z39	

536	4.458	1705.14734	-24.25370	1689.08264	1806.90649	-30.60674	1594.24951	1590.04858	-6.51955	1631.66260	1613.10583	-207.68996	1383.00952	1509.74438	76.58750	1236.91870	1502.43616	-295.31375	1081.43799	1526.93762	-339.13806	823.92047	1671.52478	195.93076	1395.09460	1783.33569	293.68414	1092.14307	2007.28943	239.55246	980.39893	1739.85718	-131.67776	920.80664	1724.03088	158.66153	907.01587	1507.85693	-7.21748	902.96875	1873.48621	-103.11722	595.88251	1850.99585	-148.09399	478.54449	1910.98743	-80.67467	248.85141	1901.03357	-154.39491	75.86256	1838.93359	-89.51575	43.19434	2043.54407	-141.42540	55.90771	1701.37549	124.94625	573.38049	1548.87268	167.39671	440.03714	1486.39331	89.90102	309.62799	1266.63208	133.46257	134.94113	1211.38635	74.13003	158.87807	1367.81470	120.44185	40.75138	2090.29468	-127.91132	63.64897	2054.49951	-106.47964	62.97465	1959.26465	-66.85278	66.95435	1887.19617	-59.40171	45.90111	1868.54407	-132.82068	42.94505	1942.22424	-165.04016	39.00268	2005.80591	-179.30757	44.02119	1407.58765	92.86878	36.76418	1380.68457	81.62592	44.13648	1315.95691	47.43190	97.18761	1248.76807	45.46006	140.44054	1228.78564	115.74857	139.17006	1278.66870	144.16222	75.72507	1329.80664	152.12463	44.18178	
537	4.467	1716.28186	-25.83836	1689.96692	1817.85352	-32.70948	1595.13611	1601.64893	-8.47493	1632.62061	1624.83093	-209.48483	1384.05249	1522.65955	74.55878	1237.61121	1516.24573	-297.18585	1081.19897	1540.20642	-340.44815	824.01013	1682.93347	194.22797	1396.11340	1791.66980	292.21362	1091.98047	2015.03821	238.25656	978.79529	1752.21777	-134.15172	922.92413	1736.58191	155.60570	907.67780	1520.14233	-9.84258	904.19678	1885.70471	-104.35129	598.26801	1863.55835	-148.89424	479.33087	1917.24353	-81.10690	247.57451	1904.31067	-154.55470	74.41492	1840.35742	-89.85333	44.31557	2046.39087	-142.11633	52.39874	1717.91370	124.70303	574.25348	1566.69690	169.96616	440.46033	1501.87122	92.84965	309.86792	1275.67212	134.50450	142.82979	1223.50537	74.39457	169.78076	1369.06421	120.25530	40.45332	2094.29150	-126.29453	58.84722	2057.09058	-107.17063	58.81824	1961.63037	-66.65086	64.53930	1888.24084	-59.50577	45.45569	1870.14624	-132.83537	43.91465	1942.88806	-165.87091	38.00785	2006.79651	-183.03185	42.21440	1406.37146	93.06025	36.04216	1382.30542	81.14686	44.17887	1323.96240	49.81338	102.55052	1260.48071	45.63271	149.63713	1238.04871	115.59709	148.57133	1283.80823	144.79102	81.67064	1332.13477	151.65256	45.75343	
538	4.475	1727.58508	-27.79767	1690.98145	1829.69568	-34.08524	1596.17798	1612.66931	-10.99978	1633.72961	1636.80884	-211.56551	1385.34949	1534.22974	72.32659	1238.21790	1529.69495	-299.01312	1081.68921	1554.77710	-341.42850	824.25409	1694.26453	191.96851	1397.40308	1800.13635	290.92172	1092.29553	2022.88281	237.96953	977.29865	1763.80237	-136.65215	924.85767	1749.21484	152.41537	908.51587	1532.15295	-11.68599	904.70874	1897.84668	-105.90923	599.86517	1874.91260	-150.45163	478.39398	1923.34229	-81.46553	246.38264	1906.46289	-154.32845	74.46305	1842.84058	-89.27414	45.05901	2049.54297	-143.03400	50.56394	1735.53833	124.67611	574.40503	1585.24084	171.40454	439.99347	1518.90735	96.07929	309.89615	1286.61353	135.38367	150.41788	1237.13928	73.86320	180.72203	1371.24854	119.75298	40.80071	2095.43799	-127.62929	54.09302	2059.43433	-107.28606	55.57568	1964.44153	-65.89973	62.50488	1889.78674	-59.07129	44.90684	1870.93372	-132.48965	44.52165	1944.14404	-165.08859	38.52835	2008.09277	-183.90041	41.23652	1406.99976	92.71461	36.27077	1384.09290	81.23409	44.12379	1333.67529	50.93763	107.66174	1272.66809	46.03283	157.97722	1248.71106	115.44765	157.82338	1289.49133	144.19862	88.25558	1335.06628	151.23096	47.85227	
539	4.483	1739.18555	-29.91344	1692.32092	1840.96777	-36.09399	1597.41504	1624.47192	-12.58528	1634.88599	1648.66724	-213.85722	1387.24341	1545.15759	70.34061	1239.78406	1544.01257	-300.55307	1082.23035	1569.14526	-341.89703	824.69806	1706.06226	189.93547	1398.74463	1807.52466	290.11859	1092.74097	2030.16077	237.14043	975.58643	1776.00366	-139.46332	927.23328	1760.97351	148.58253	909.20642	1544.98499	-13.26587	905.73712	1908.78467	-108.38402	601.22888	1884.96216	-151.82858	477.18964	1928.61938	-81.35989	245.28383	1908.04700	-153.75540	73.91430	1844.47266	-87.50973	45.56409	2051.18872	-142.08327	48.63983	1753.74243	124.95598	575.03040	1604.76807	172.52141	439.44928	1536.77429	98.96008	309.49442	1298.87378	134.74399	156.90939	1252.42163	74.03276	191.44896	1374.06763	119.78088	41.05416	2097.16870	-126.26084	50.74466	2061.06372	-106.17112	53.97171	1964.89697	-64.56036	60.99404	1890.32751	-58.77878	44.64337	1871.82727	-132.41924	44.61907	1945.45166	-162.81134	40.19434	2009.86462	-182.86769	41.61515	1408.39771	91.99969	36.50220	1387.09387	80.81605	44.82227	1343.96545	51.64671	112.55530	1286.88867	46.73629	166.91666	1262.00977	114.72495	167.03815	1297.42578	144.18945	95.34793	1338.73755	150.29094	50.57831	
540	4.492	1750.27686	-31.51326	1693.72461	1851.79639	-37.70948	1599.01416	1636.06262	-14.27551	1635.93396	1659.80505	-215.82648	1388.53015	1556.70166	68.86089	1241.06189	1557.93506	-302.04990	1082.74707	1584.79639	-343.66992	825.54840	1717.49097	187.92722	1400.72986	1816.16760	288.95758	1093.10413	2036.65198	236.40111	973.09924	1786.82678	-142.53595	929.53723	1773.13477	145.87962	909.86908	1556.56226	-14.93078	906.74335	1918.53687	-111.17570	602.08447	1894.56628	-153.26486	476.57275	1932.84912	-81.29610	244.66383	1908.60449	-153.38838	73.82882	1844.51636	-88.08266	45.76896	2052.34375	-140.68085	47.78278	1771.63965	125.44171	575.79175	1625.52710	173.42659	438.70300	1555.34534	101.35918	308.93115	1310.90063	135.97681	164.35243	1268.24194	74.36528	202.75378	1377.63843	119.26733	42.92979	2099.39600	-122.03042	48.12431	2061.67749	-103.60088	52.66084	1965.56836	-64.15360	60.19016	1890.56201	-58.64384	44.60281	1873.08740	-132.34692	44.65608	1946.17285	-162.27748	40.63295	2011.08557	-182.01030	41.85586	1411.47803	90.40155	37.45229	1391.64734	81.12953	46.89633	1354.10156	52.15372	117.69241	1301.26245	47.26476	176.38777	1275.36035	114.89215	177.08813	1305.50122	144.44601	102.82947	1342.94629	149.02522	54.33002	
541	4.500	1760.65674	-33.18867	1695.29529	1862.96521	-39.59341	1600.61377	1646.27332	-16.21771	1637.51599	1671.78516	-217.42180	1390.66748	1568.65393	67.25806	1242.37634	1571.60657	-303.77780	1083.70483	1600.75757	-345.05429	826.45776	1728.60449	186.18703	1402.13953	1823.39404	286.69263	1093.84131	2043.08289	236.74585	971.02264	1798.13013	-145.35864	931.94916	1784.94861	142.28505	911.23224	1566.73743	-17.19110	908.42889	1927.33325	-113.59343	601.90698	1903.25940	-154.58727	477.54227	1936.61731	-81.47164	243.98943	1909.16614	-152.83965	73.40722	1843.70313	-89.13733	45.60743	2054.27490	-141.77742	47.85724	1790.52161	126.46921	577.13019	1645.99292	172.97267	437.44186	1574.12891	102.13108	308.66730	1325.97546	135.42720	172.76096	1284.80640	75.04169	214.27328	1382.33716	118.87383	46.00642	2100.16064	-123.66583	47.27925	2062.49414	-104.31811	52.23197	1965.80725	-63.97443	59.42766	1890.99707	-58.51781	44.46463	1873.65344	-132.16797	44.69254	1945.51245	-162.81595	40.21754	2011.35938	-182.66125	41.34647	1413.71301	91.11420	36.76155	1396.46423	80.47636	48.35782	1366.40039	52.13833	123.75984	1316.30688	47.37872	186.14973	1290.54504	115.38553	187.75711	1315.31812	144.46292	111.72269	1349.87634	148.92583	59.11162	
